<svg width="24" height="24" viewBox="0 0 24 24" fill="none" xmlns="http://www.w3.org/2000/svg">
<path d="M13 12.5999V8.9999C13 8.71657 12.904 8.47924 12.712 8.2879C12.52 8.09657 12.2827 8.00057 12 7.9999C11.7174 7.99924 11.48 8.09524 11.288 8.2879C11.096 8.48057 11 8.7179 11 8.9999V12.9749C11 13.1082 11.025 13.2376 11.075 13.3629C11.125 13.4882 11.2 13.6006 11.3 13.6999L14.1 16.4999C14.2834 16.6832 14.5167 16.7749 14.8 16.7749C15.0834 16.7749 15.3167 16.6832 15.5 16.4999C15.6834 16.3166 15.775 16.0832 15.775 15.7999C15.775 15.5166 15.6834 15.2832 15.5 15.0999L13 12.5999ZM12 21.9999C10.75 21.9999 9.57936 21.7626 8.48802 21.2879C7.39669 20.8132 6.44669 20.1716 5.63802 19.3629C4.82936 18.5542 4.18769 17.6042 3.71302 16.5129C3.23836 15.4216 3.00069 14.2506 3.00002 12.9999C2.99936 11.7492 3.23702 10.5786 3.71302 9.4879C4.18902 8.39724 4.83036 7.44724 5.63702 6.6379C6.44369 5.82857 7.39369 5.1869 8.48702 4.7129C9.58036 4.2389 10.7514 4.00124 12 3.9999C13.2487 3.99857 14.4197 4.23624 15.513 4.7129C16.6064 5.18957 17.5564 5.83124 18.363 6.6379C19.1697 7.44457 19.8114 8.39457 20.288 9.4879C20.7647 10.5812 21.002 11.7519 21 12.9999C20.998 14.2479 20.7607 15.4189 20.288 16.5129C19.8154 17.6069 19.1737 18.5569 18.363 19.3629C17.5524 20.1689 16.6024 20.8106 15.513 21.2879C14.4237 21.7652 13.2527 22.0026 12 21.9999ZM2.05002 7.2999C1.86669 7.11657 1.77502 6.88324 1.77502 6.5999C1.77502 6.31657 1.86669 6.08324 2.05002 5.8999L4.90002 3.0499C5.08336 2.86657 5.31669 2.7749 5.60002 2.7749C5.88336 2.7749 6.11669 2.86657 6.30002 3.0499C6.48336 3.23324 6.57502 3.46657 6.57502 3.7499C6.57502 4.03324 6.48336 4.26657 6.30002 4.4499L3.45002 7.2999C3.26669 7.48324 3.03336 7.5749 2.75002 7.5749C2.46669 7.5749 2.23336 7.48324 2.05002 7.2999ZM21.95 7.2999C21.7667 7.48324 21.5334 7.5749 21.25 7.5749C20.9667 7.5749 20.7334 7.48324 20.55 7.2999L17.7 4.4499C17.5167 4.26657 17.425 4.03324 17.425 3.7499C17.425 3.46657 17.5167 3.23324 17.7 3.0499C17.8834 2.86657 18.1167 2.7749 18.4 2.7749C18.6834 2.7749 18.9167 2.86657 19.1 3.0499L21.95 5.8999C22.1334 6.08324 22.225 6.31657 22.225 6.5999C22.225 6.88324 22.1334 7.11657 21.95 7.2999ZM12 19.9999C13.95 19.9999 15.6044 19.3209 16.963 17.9629C18.3217 16.6049 19.0007 14.9506 19 12.9999C18.9994 11.0492 18.3204 9.39524 16.963 8.0379C15.6057 6.68057 13.9514 6.00124 12 5.9999C10.0487 5.99857 8.39469 6.6779 7.03802 8.0379C5.68136 9.3979 5.00202 11.0519 5.00002 12.9999C4.99802 14.9479 5.67736 16.6022 7.03802 17.9629C8.39869 19.3236 10.0527 20.0026 12 19.9999Z" fill="black"/>
</svg>
