<svg width="20" height="20" viewBox="0 0 20 20" fill="none" xmlns="http://www.w3.org/2000/svg">
<path d="M15.3589 12.5L12.4859 15.204C12.3453 15.3413 12.2642 15.5283 12.2601 15.7248C12.256 15.9213 12.3291 16.1116 12.4638 16.2547C12.5985 16.3978 12.7841 16.4823 12.9804 16.49C13.1768 16.4977 13.3684 16.4281 13.5139 16.296L17.7639 12.296C17.8384 12.2259 17.8977 12.1413 17.9383 12.0474C17.9788 11.9535 17.9998 11.8523 17.9998 11.75C17.9998 11.6477 17.9788 11.5465 17.9383 11.4526C17.8977 11.3587 17.8384 11.2741 17.7639 11.204L13.5139 7.204C13.4426 7.13438 13.3582 7.07967 13.2655 7.04306C13.1728 7.00645 13.0738 6.98867 12.9742 6.99077C12.8746 6.99286 12.7763 7.01479 12.6853 7.05527C12.5942 7.09575 12.5122 7.15396 12.4439 7.22652C12.3756 7.29907 12.3224 7.38451 12.2875 7.47784C12.2526 7.57117 12.2366 7.67052 12.2405 7.77008C12.2445 7.86965 12.2682 7.96744 12.3103 8.05774C12.3524 8.14804 12.4121 8.22904 12.4859 8.296L15.3589 11H5.24994C4.78581 11 4.34069 10.8156 4.0125 10.4874C3.68431 10.1592 3.49994 9.71413 3.49994 9.25V4.75C3.49994 4.55109 3.42092 4.36032 3.28027 4.21967C3.13962 4.07902 2.94885 4 2.74994 4C2.55103 4 2.36026 4.07902 2.21961 4.21967C2.07896 4.36032 1.99994 4.55109 1.99994 4.75V9.25C1.99994 10.112 2.34235 10.9386 2.95184 11.5481C3.56133 12.1576 4.38799 12.5 5.24994 12.5H15.3589Z" fill="black"/>
</svg>
